<mxfile host="Electron" modified="2023-07-17T03:19:21.140Z" agent="Mozilla/5.0 (Windows NT 10.0; Win64; x64) AppleWebKit/537.36 (KHTML, like Gecko) draw.io/21.6.1 Chrome/112.0.5615.204 Electron/24.6.1 Safari/537.36" etag="tpswbXDgcnXE0zLpdhny" version="21.6.1" type="device">
  <diagram name="Schnorr Sign" id="qU-qk8QQnOYvLi3EfYrb">
    <mxGraphModel dx="1434" dy="844" grid="1" gridSize="10" guides="1" tooltips="1" connect="1" arrows="1" fold="1" page="1" pageScale="1" pageWidth="1169" pageHeight="827" math="0" shadow="0">
      <root>
        <mxCell id="0" />
        <mxCell id="1" parent="0" />
        <mxCell id="d1IZJ3S6tasQvQ4UI0eu-96" value="Structure" style="" parent="0" />
        <mxCell id="d1IZJ3S6tasQvQ4UI0eu-158" value="" style="rounded=0;whiteSpace=wrap;html=1;dashed=1;fillColor=#cce5ff;strokeColor=#36393d;" vertex="1" parent="d1IZJ3S6tasQvQ4UI0eu-96">
          <mxGeometry x="60" y="553" width="1000" height="257" as="geometry" />
        </mxCell>
        <mxCell id="7V60mKFHXmHXIKEVSdom-154" value="" style="whiteSpace=wrap;html=1;aspect=fixed;" vertex="1" parent="d1IZJ3S6tasQvQ4UI0eu-96">
          <mxGeometry x="525" y="63" width="80" height="80" as="geometry" />
        </mxCell>
        <mxCell id="7V60mKFHXmHXIKEVSdom-156" value="" style="rounded=0;whiteSpace=wrap;html=1;fillColor=#fff2cc;strokeColor=#d6b656;dashed=1;" vertex="1" parent="d1IZJ3S6tasQvQ4UI0eu-96">
          <mxGeometry x="55" y="13" width="1010" height="490" as="geometry" />
        </mxCell>
        <mxCell id="sJtw5dgyx9X_-EHVN63x-3" value="Sign the message with Secret Key" style="text;html=1;strokeColor=none;fillColor=none;align=center;verticalAlign=middle;whiteSpace=wrap;rounded=0;fontStyle=1;fontSize=14;" vertex="1" parent="d1IZJ3S6tasQvQ4UI0eu-96">
          <mxGeometry x="70" y="450" width="250" height="30" as="geometry" />
        </mxCell>
        <mxCell id="sJtw5dgyx9X_-EHVN63x-4" value="Verify the signature" style="text;html=1;strokeColor=none;fillColor=none;align=center;verticalAlign=middle;whiteSpace=wrap;rounded=0;fontStyle=1;fontSize=14;" vertex="1" parent="d1IZJ3S6tasQvQ4UI0eu-96">
          <mxGeometry x="780" y="570" width="250" height="30" as="geometry" />
        </mxCell>
        <mxCell id="d1IZJ3S6tasQvQ4UI0eu-95" value="Flow" parent="0" />
        <mxCell id="d1IZJ3S6tasQvQ4UI0eu-97" style="edgeStyle=orthogonalEdgeStyle;rounded=0;orthogonalLoop=1;jettySize=auto;html=1;exitX=1;exitY=0.5;exitDx=0;exitDy=0;entryX=0;entryY=0.5;entryDx=0;entryDy=0;" edge="1" parent="d1IZJ3S6tasQvQ4UI0eu-95" source="d1IZJ3S6tasQvQ4UI0eu-98" target="d1IZJ3S6tasQvQ4UI0eu-120">
          <mxGeometry relative="1" as="geometry">
            <Array as="points">
              <mxPoint x="100" y="633" />
              <mxPoint x="100" y="633" />
            </Array>
          </mxGeometry>
        </mxCell>
        <mxCell id="d1IZJ3S6tasQvQ4UI0eu-98" value="byte pk[32]&lt;br style=&quot;font-size: 9px;&quot;&gt;Public Key" style="html=1;whiteSpace=wrap;fontSize=9;" vertex="1" parent="d1IZJ3S6tasQvQ4UI0eu-95">
          <mxGeometry x="30" y="618" width="60" height="30" as="geometry" />
        </mxCell>
        <mxCell id="d1IZJ3S6tasQvQ4UI0eu-99" style="edgeStyle=orthogonalEdgeStyle;rounded=0;orthogonalLoop=1;jettySize=auto;html=1;exitX=1;exitY=0.5;exitDx=0;exitDy=0;entryX=0;entryY=0.75;entryDx=0;entryDy=0;" edge="1" parent="d1IZJ3S6tasQvQ4UI0eu-95" source="d1IZJ3S6tasQvQ4UI0eu-100" target="d1IZJ3S6tasQvQ4UI0eu-113">
          <mxGeometry relative="1" as="geometry">
            <Array as="points">
              <mxPoint x="260" y="778" />
              <mxPoint x="260" y="663" />
            </Array>
          </mxGeometry>
        </mxCell>
        <mxCell id="d1IZJ3S6tasQvQ4UI0eu-100" value="byte m[]&lt;br style=&quot;font-size: 9px;&quot;&gt;Message" style="html=1;whiteSpace=wrap;fontSize=9;" vertex="1" parent="d1IZJ3S6tasQvQ4UI0eu-95">
          <mxGeometry x="30" y="763" width="60" height="30" as="geometry" />
        </mxCell>
        <mxCell id="d1IZJ3S6tasQvQ4UI0eu-101" style="edgeStyle=orthogonalEdgeStyle;rounded=0;orthogonalLoop=1;jettySize=auto;html=1;exitX=1;exitY=0.5;exitDx=0;exitDy=0;" edge="1" parent="d1IZJ3S6tasQvQ4UI0eu-95" source="d1IZJ3S6tasQvQ4UI0eu-102" target="d1IZJ3S6tasQvQ4UI0eu-108">
          <mxGeometry relative="1" as="geometry" />
        </mxCell>
        <mxCell id="d1IZJ3S6tasQvQ4UI0eu-102" value="byte sig[64]&lt;br style=&quot;font-size: 9px;&quot;&gt;Public Key" style="html=1;whiteSpace=wrap;fontSize=9;" vertex="1" parent="d1IZJ3S6tasQvQ4UI0eu-95">
          <mxGeometry x="30" y="688" width="60" height="30" as="geometry" />
        </mxCell>
        <mxCell id="d1IZJ3S6tasQvQ4UI0eu-103" style="rounded=0;orthogonalLoop=1;jettySize=auto;html=1;exitX=1;exitY=0.5;exitDx=0;exitDy=0;" edge="1" parent="d1IZJ3S6tasQvQ4UI0eu-95" source="d1IZJ3S6tasQvQ4UI0eu-104" target="d1IZJ3S6tasQvQ4UI0eu-124">
          <mxGeometry relative="1" as="geometry" />
        </mxCell>
        <mxCell id="d1IZJ3S6tasQvQ4UI0eu-104" value="byte s[32]" style="html=1;whiteSpace=wrap;fontSize=9;" vertex="1" parent="d1IZJ3S6tasQvQ4UI0eu-95">
          <mxGeometry x="190" y="713" width="50" height="15" as="geometry" />
        </mxCell>
        <mxCell id="d1IZJ3S6tasQvQ4UI0eu-105" style="rounded=0;orthogonalLoop=1;jettySize=auto;html=1;exitX=1;exitY=0.25;exitDx=0;exitDy=0;entryX=0;entryY=0.5;entryDx=0;entryDy=0;" edge="1" parent="d1IZJ3S6tasQvQ4UI0eu-95" source="d1IZJ3S6tasQvQ4UI0eu-108" target="d1IZJ3S6tasQvQ4UI0eu-111">
          <mxGeometry relative="1" as="geometry">
            <mxPoint x="210" y="678" as="targetPoint" />
          </mxGeometry>
        </mxCell>
        <mxCell id="d1IZJ3S6tasQvQ4UI0eu-106" value="input[0:31]" style="edgeLabel;html=1;align=center;verticalAlign=middle;resizable=0;points=[];fontSize=9;" vertex="1" connectable="0" parent="d1IZJ3S6tasQvQ4UI0eu-105">
          <mxGeometry x="-0.5764" relative="1" as="geometry">
            <mxPoint x="-20" y="-14" as="offset" />
          </mxGeometry>
        </mxCell>
        <mxCell id="d1IZJ3S6tasQvQ4UI0eu-107" value="input[32:63]" style="rounded=0;orthogonalLoop=1;jettySize=auto;html=1;exitX=1;exitY=0.75;exitDx=0;exitDy=0;entryX=-0.001;entryY=0.642;entryDx=0;entryDy=0;entryPerimeter=0;fontSize=9;" edge="1" parent="d1IZJ3S6tasQvQ4UI0eu-95" source="d1IZJ3S6tasQvQ4UI0eu-108" target="d1IZJ3S6tasQvQ4UI0eu-104">
          <mxGeometry x="-1" y="-21" relative="1" as="geometry">
            <mxPoint x="-4" y="-3" as="offset" />
          </mxGeometry>
        </mxCell>
        <mxCell id="d1IZJ3S6tasQvQ4UI0eu-108" value="Split array" style="rounded=1;whiteSpace=wrap;html=1;absoluteArcSize=1;arcSize=14;strokeWidth=2;fontSize=9;" vertex="1" parent="d1IZJ3S6tasQvQ4UI0eu-95">
          <mxGeometry x="115" y="693" width="50" height="20" as="geometry" />
        </mxCell>
        <mxCell id="d1IZJ3S6tasQvQ4UI0eu-109" style="edgeStyle=orthogonalEdgeStyle;rounded=0;orthogonalLoop=1;jettySize=auto;html=1;exitX=1;exitY=0.5;exitDx=0;exitDy=0;entryX=0;entryY=0.25;entryDx=0;entryDy=0;" edge="1" parent="d1IZJ3S6tasQvQ4UI0eu-95" source="d1IZJ3S6tasQvQ4UI0eu-111" target="d1IZJ3S6tasQvQ4UI0eu-113">
          <mxGeometry relative="1" as="geometry">
            <Array as="points">
              <mxPoint x="250" y="681" />
              <mxPoint x="250" y="643" />
            </Array>
          </mxGeometry>
        </mxCell>
        <mxCell id="d1IZJ3S6tasQvQ4UI0eu-110" style="edgeStyle=orthogonalEdgeStyle;rounded=0;orthogonalLoop=1;jettySize=auto;html=1;exitX=1;exitY=0.5;exitDx=0;exitDy=0;entryX=0;entryY=0.5;entryDx=0;entryDy=0;" edge="1" parent="d1IZJ3S6tasQvQ4UI0eu-95" source="d1IZJ3S6tasQvQ4UI0eu-111" target="d1IZJ3S6tasQvQ4UI0eu-151">
          <mxGeometry relative="1" as="geometry">
            <Array as="points">
              <mxPoint x="250" y="681" />
              <mxPoint x="250" y="757" />
            </Array>
          </mxGeometry>
        </mxCell>
        <mxCell id="d1IZJ3S6tasQvQ4UI0eu-111" value="byte r[32]" style="html=1;whiteSpace=wrap;fontSize=9;" vertex="1" parent="d1IZJ3S6tasQvQ4UI0eu-95">
          <mxGeometry x="190" y="673" width="50" height="15" as="geometry" />
        </mxCell>
        <mxCell id="d1IZJ3S6tasQvQ4UI0eu-112" style="edgeStyle=orthogonalEdgeStyle;rounded=0;orthogonalLoop=1;jettySize=auto;html=1;exitX=1;exitY=0.5;exitDx=0;exitDy=0;" edge="1" parent="d1IZJ3S6tasQvQ4UI0eu-95" source="d1IZJ3S6tasQvQ4UI0eu-113" target="d1IZJ3S6tasQvQ4UI0eu-130">
          <mxGeometry relative="1" as="geometry" />
        </mxCell>
        <mxCell id="d1IZJ3S6tasQvQ4UI0eu-113" value="TaggedHash" style="rounded=1;whiteSpace=wrap;html=1;absoluteArcSize=1;arcSize=14;strokeWidth=2;fontSize=9;" vertex="1" parent="d1IZJ3S6tasQvQ4UI0eu-95">
          <mxGeometry x="305" y="633" width="60" height="40" as="geometry" />
        </mxCell>
        <mxCell id="d1IZJ3S6tasQvQ4UI0eu-114" style="edgeStyle=orthogonalEdgeStyle;rounded=0;orthogonalLoop=1;jettySize=auto;html=1;exitX=0.5;exitY=1;exitDx=0;exitDy=0;entryX=0.5;entryY=0;entryDx=0;entryDy=0;" edge="1" parent="d1IZJ3S6tasQvQ4UI0eu-95" source="d1IZJ3S6tasQvQ4UI0eu-115" target="d1IZJ3S6tasQvQ4UI0eu-113">
          <mxGeometry relative="1" as="geometry" />
        </mxCell>
        <mxCell id="d1IZJ3S6tasQvQ4UI0eu-115" value="&quot;BIP0340/challenge" style="html=1;whiteSpace=wrap;fontSize=9;" vertex="1" parent="d1IZJ3S6tasQvQ4UI0eu-95">
          <mxGeometry x="290" y="603" width="90" height="15" as="geometry" />
        </mxCell>
        <mxCell id="d1IZJ3S6tasQvQ4UI0eu-116" style="edgeStyle=orthogonalEdgeStyle;rounded=0;orthogonalLoop=1;jettySize=auto;html=1;exitX=1;exitY=0.5;exitDx=0;exitDy=0;entryX=0;entryY=0.5;entryDx=0;entryDy=0;" edge="1" parent="d1IZJ3S6tasQvQ4UI0eu-95" source="d1IZJ3S6tasQvQ4UI0eu-120" target="d1IZJ3S6tasQvQ4UI0eu-122">
          <mxGeometry relative="1" as="geometry">
            <Array as="points">
              <mxPoint x="170" y="633" />
              <mxPoint x="170" y="603" />
            </Array>
          </mxGeometry>
        </mxCell>
        <mxCell id="d1IZJ3S6tasQvQ4UI0eu-117" value="P.x" style="edgeLabel;html=1;align=center;verticalAlign=middle;resizable=0;points=[];" vertex="1" connectable="0" parent="d1IZJ3S6tasQvQ4UI0eu-116">
          <mxGeometry x="-0.013" y="1" relative="1" as="geometry">
            <mxPoint x="11" y="5" as="offset" />
          </mxGeometry>
        </mxCell>
        <mxCell id="d1IZJ3S6tasQvQ4UI0eu-118" style="edgeStyle=orthogonalEdgeStyle;rounded=0;orthogonalLoop=1;jettySize=auto;html=1;exitX=1;exitY=0.25;exitDx=0;exitDy=0;entryX=0.5;entryY=0;entryDx=0;entryDy=0;" edge="1" parent="d1IZJ3S6tasQvQ4UI0eu-95" source="d1IZJ3S6tasQvQ4UI0eu-120" target="d1IZJ3S6tasQvQ4UI0eu-128">
          <mxGeometry relative="1" as="geometry">
            <Array as="points">
              <mxPoint x="160" y="628" />
              <mxPoint x="160" y="583" />
              <mxPoint x="595" y="583" />
            </Array>
          </mxGeometry>
        </mxCell>
        <mxCell id="d1IZJ3S6tasQvQ4UI0eu-119" value="P" style="edgeLabel;html=1;align=center;verticalAlign=middle;resizable=0;points=[];" vertex="1" connectable="0" parent="d1IZJ3S6tasQvQ4UI0eu-118">
          <mxGeometry x="-0.8545" y="2" relative="1" as="geometry">
            <mxPoint x="-8" as="offset" />
          </mxGeometry>
        </mxCell>
        <mxCell id="d1IZJ3S6tasQvQ4UI0eu-120" value="EC P" style="html=1;whiteSpace=wrap;fontSize=9;" vertex="1" parent="d1IZJ3S6tasQvQ4UI0eu-95">
          <mxGeometry x="115" y="623" width="40" height="20" as="geometry" />
        </mxCell>
        <mxCell id="d1IZJ3S6tasQvQ4UI0eu-121" style="edgeStyle=orthogonalEdgeStyle;rounded=0;orthogonalLoop=1;jettySize=auto;html=1;exitX=1;exitY=0.5;exitDx=0;exitDy=0;entryX=0;entryY=0.5;entryDx=0;entryDy=0;" edge="1" parent="d1IZJ3S6tasQvQ4UI0eu-95" source="d1IZJ3S6tasQvQ4UI0eu-122" target="d1IZJ3S6tasQvQ4UI0eu-113">
          <mxGeometry relative="1" as="geometry">
            <Array as="points">
              <mxPoint x="260" y="603" />
              <mxPoint x="260" y="653" />
            </Array>
          </mxGeometry>
        </mxCell>
        <mxCell id="d1IZJ3S6tasQvQ4UI0eu-122" value="Int To byte[32]" style="rounded=1;whiteSpace=wrap;html=1;absoluteArcSize=1;arcSize=14;strokeWidth=2;fontSize=7;" vertex="1" parent="d1IZJ3S6tasQvQ4UI0eu-95">
          <mxGeometry x="190" y="593" width="50" height="20" as="geometry" />
        </mxCell>
        <mxCell id="d1IZJ3S6tasQvQ4UI0eu-123" style="edgeStyle=orthogonalEdgeStyle;rounded=0;orthogonalLoop=1;jettySize=auto;html=1;exitX=1;exitY=0.5;exitDx=0;exitDy=0;entryX=0;entryY=0.75;entryDx=0;entryDy=0;" edge="1" parent="d1IZJ3S6tasQvQ4UI0eu-95" source="d1IZJ3S6tasQvQ4UI0eu-124" target="d1IZJ3S6tasQvQ4UI0eu-138">
          <mxGeometry relative="1" as="geometry">
            <Array as="points">
              <mxPoint x="640" y="728" />
              <mxPoint x="640" y="671" />
              <mxPoint x="660" y="671" />
            </Array>
          </mxGeometry>
        </mxCell>
        <mxCell id="d1IZJ3S6tasQvQ4UI0eu-124" value="EC Scalar Mul" style="rounded=1;whiteSpace=wrap;html=1;absoluteArcSize=1;arcSize=14;strokeWidth=2;fontSize=9;" vertex="1" parent="d1IZJ3S6tasQvQ4UI0eu-95">
          <mxGeometry x="305" y="718" width="65" height="20" as="geometry" />
        </mxCell>
        <mxCell id="d1IZJ3S6tasQvQ4UI0eu-162" style="edgeStyle=orthogonalEdgeStyle;rounded=0;orthogonalLoop=1;jettySize=auto;html=1;exitX=1;exitY=0.5;exitDx=0;exitDy=0;entryX=0.462;entryY=-0.017;entryDx=0;entryDy=0;entryPerimeter=0;" edge="1" parent="d1IZJ3S6tasQvQ4UI0eu-95" source="d1IZJ3S6tasQvQ4UI0eu-126" target="d1IZJ3S6tasQvQ4UI0eu-124">
          <mxGeometry relative="1" as="geometry" />
        </mxCell>
        <mxCell id="d1IZJ3S6tasQvQ4UI0eu-126" value="G" style="html=1;whiteSpace=wrap;fontSize=9;" vertex="1" parent="d1IZJ3S6tasQvQ4UI0eu-95">
          <mxGeometry x="310" y="693" width="15" height="15" as="geometry" />
        </mxCell>
        <mxCell id="d1IZJ3S6tasQvQ4UI0eu-127" style="edgeStyle=orthogonalEdgeStyle;rounded=0;orthogonalLoop=1;jettySize=auto;html=1;exitX=1;exitY=0.5;exitDx=0;exitDy=0;entryX=-0.004;entryY=0.406;entryDx=0;entryDy=0;entryPerimeter=0;" edge="1" parent="d1IZJ3S6tasQvQ4UI0eu-95" source="d1IZJ3S6tasQvQ4UI0eu-128" target="d1IZJ3S6tasQvQ4UI0eu-138">
          <mxGeometry relative="1" as="geometry">
            <Array as="points">
              <mxPoint x="640" y="653" />
              <mxPoint x="640" y="660" />
            </Array>
          </mxGeometry>
        </mxCell>
        <mxCell id="d1IZJ3S6tasQvQ4UI0eu-128" value="EC Scalar Mul" style="rounded=1;whiteSpace=wrap;html=1;absoluteArcSize=1;arcSize=14;strokeWidth=2;fontSize=9;" vertex="1" parent="d1IZJ3S6tasQvQ4UI0eu-95">
          <mxGeometry x="560" y="643" width="70" height="20" as="geometry" />
        </mxCell>
        <mxCell id="d1IZJ3S6tasQvQ4UI0eu-129" style="edgeStyle=orthogonalEdgeStyle;rounded=0;orthogonalLoop=1;jettySize=auto;html=1;exitX=1;exitY=0.5;exitDx=0;exitDy=0;entryX=0;entryY=0.5;entryDx=0;entryDy=0;" edge="1" parent="d1IZJ3S6tasQvQ4UI0eu-95" source="d1IZJ3S6tasQvQ4UI0eu-130" target="d1IZJ3S6tasQvQ4UI0eu-134">
          <mxGeometry relative="1" as="geometry" />
        </mxCell>
        <mxCell id="d1IZJ3S6tasQvQ4UI0eu-130" value="Byte[32] to Int" style="rounded=1;whiteSpace=wrap;html=1;absoluteArcSize=1;arcSize=14;strokeWidth=2;fontSize=7;" vertex="1" parent="d1IZJ3S6tasQvQ4UI0eu-95">
          <mxGeometry x="385" y="643" width="50" height="20" as="geometry" />
        </mxCell>
        <mxCell id="d1IZJ3S6tasQvQ4UI0eu-131" style="edgeStyle=orthogonalEdgeStyle;rounded=0;orthogonalLoop=1;jettySize=auto;html=1;exitX=1;exitY=0.5;exitDx=0;exitDy=0;entryX=0;entryY=0.5;entryDx=0;entryDy=0;" edge="1" parent="d1IZJ3S6tasQvQ4UI0eu-95" source="d1IZJ3S6tasQvQ4UI0eu-132" target="d1IZJ3S6tasQvQ4UI0eu-128">
          <mxGeometry relative="1" as="geometry" />
        </mxCell>
        <mxCell id="d1IZJ3S6tasQvQ4UI0eu-132" value="int e" style="html=1;whiteSpace=wrap;fontSize=9;" vertex="1" parent="d1IZJ3S6tasQvQ4UI0eu-95">
          <mxGeometry x="510" y="645.5" width="30" height="15" as="geometry" />
        </mxCell>
        <mxCell id="d1IZJ3S6tasQvQ4UI0eu-133" style="edgeStyle=orthogonalEdgeStyle;rounded=0;orthogonalLoop=1;jettySize=auto;html=1;exitX=1;exitY=0.5;exitDx=0;exitDy=0;entryX=0;entryY=0.5;entryDx=0;entryDy=0;" edge="1" parent="d1IZJ3S6tasQvQ4UI0eu-95" source="d1IZJ3S6tasQvQ4UI0eu-134" target="d1IZJ3S6tasQvQ4UI0eu-132">
          <mxGeometry relative="1" as="geometry" />
        </mxCell>
        <mxCell id="d1IZJ3S6tasQvQ4UI0eu-134" value="mod&amp;nbsp;" style="rounded=1;whiteSpace=wrap;html=1;absoluteArcSize=1;arcSize=14;strokeWidth=2;fontSize=9;" vertex="1" parent="d1IZJ3S6tasQvQ4UI0eu-95">
          <mxGeometry x="450" y="643" width="40" height="20" as="geometry" />
        </mxCell>
        <mxCell id="d1IZJ3S6tasQvQ4UI0eu-135" style="edgeStyle=orthogonalEdgeStyle;rounded=0;orthogonalLoop=1;jettySize=auto;html=1;exitX=1;exitY=0.5;exitDx=0;exitDy=0;entryX=0.5;entryY=1;entryDx=0;entryDy=0;" edge="1" parent="d1IZJ3S6tasQvQ4UI0eu-95" source="d1IZJ3S6tasQvQ4UI0eu-136" target="d1IZJ3S6tasQvQ4UI0eu-134">
          <mxGeometry relative="1" as="geometry" />
        </mxCell>
        <mxCell id="d1IZJ3S6tasQvQ4UI0eu-136" value="n" style="html=1;whiteSpace=wrap;fontSize=9;" vertex="1" parent="d1IZJ3S6tasQvQ4UI0eu-95">
          <mxGeometry x="450" y="678" width="10" height="15" as="geometry" />
        </mxCell>
        <mxCell id="d1IZJ3S6tasQvQ4UI0eu-137" style="edgeStyle=orthogonalEdgeStyle;rounded=0;orthogonalLoop=1;jettySize=auto;html=1;exitX=1;exitY=0.5;exitDx=0;exitDy=0;entryX=0;entryY=0.5;entryDx=0;entryDy=0;" edge="1" parent="d1IZJ3S6tasQvQ4UI0eu-95" source="d1IZJ3S6tasQvQ4UI0eu-138" target="d1IZJ3S6tasQvQ4UI0eu-143">
          <mxGeometry relative="1" as="geometry" />
        </mxCell>
        <mxCell id="d1IZJ3S6tasQvQ4UI0eu-138" value="EC Sub" style="rounded=1;whiteSpace=wrap;html=1;absoluteArcSize=1;arcSize=14;strokeWidth=2;fontSize=9;" vertex="1" parent="d1IZJ3S6tasQvQ4UI0eu-95">
          <mxGeometry x="660" y="648" width="40" height="30" as="geometry" />
        </mxCell>
        <mxCell id="d1IZJ3S6tasQvQ4UI0eu-139" style="edgeStyle=orthogonalEdgeStyle;rounded=0;orthogonalLoop=1;jettySize=auto;html=1;exitX=1;exitY=0.75;exitDx=0;exitDy=0;entryX=0;entryY=0.2;entryDx=0;entryDy=0;entryPerimeter=0;" edge="1" parent="d1IZJ3S6tasQvQ4UI0eu-95" source="d1IZJ3S6tasQvQ4UI0eu-143" target="d1IZJ3S6tasQvQ4UI0eu-149">
          <mxGeometry relative="1" as="geometry">
            <Array as="points">
              <mxPoint x="760" y="667" />
              <mxPoint x="760" y="743" />
            </Array>
          </mxGeometry>
        </mxCell>
        <mxCell id="d1IZJ3S6tasQvQ4UI0eu-140" value="R.x" style="edgeLabel;html=1;align=center;verticalAlign=middle;resizable=0;points=[];" vertex="1" connectable="0" parent="d1IZJ3S6tasQvQ4UI0eu-139">
          <mxGeometry x="-0.0725" y="-1" relative="1" as="geometry">
            <mxPoint x="-9" y="3" as="offset" />
          </mxGeometry>
        </mxCell>
        <mxCell id="d1IZJ3S6tasQvQ4UI0eu-141" value="R" style="edgeStyle=orthogonalEdgeStyle;rounded=0;orthogonalLoop=1;jettySize=auto;html=1;exitX=1;exitY=0.25;exitDx=0;exitDy=0;entryX=0;entryY=0.5;entryDx=0;entryDy=0;" edge="1" parent="d1IZJ3S6tasQvQ4UI0eu-95" source="d1IZJ3S6tasQvQ4UI0eu-143" target="d1IZJ3S6tasQvQ4UI0eu-145">
          <mxGeometry x="-0.5068" y="6" relative="1" as="geometry">
            <mxPoint as="offset" />
          </mxGeometry>
        </mxCell>
        <mxCell id="d1IZJ3S6tasQvQ4UI0eu-142" style="edgeStyle=orthogonalEdgeStyle;rounded=0;orthogonalLoop=1;jettySize=auto;html=1;exitX=1;exitY=0.25;exitDx=0;exitDy=0;entryX=0;entryY=0.5;entryDx=0;entryDy=0;" edge="1" parent="d1IZJ3S6tasQvQ4UI0eu-95" source="d1IZJ3S6tasQvQ4UI0eu-143" target="d1IZJ3S6tasQvQ4UI0eu-147">
          <mxGeometry relative="1" as="geometry">
            <Array as="points">
              <mxPoint x="770" y="659" />
              <mxPoint x="770" y="703" />
            </Array>
          </mxGeometry>
        </mxCell>
        <mxCell id="d1IZJ3S6tasQvQ4UI0eu-143" value="EC R" style="html=1;whiteSpace=wrap;fontSize=9;" vertex="1" parent="d1IZJ3S6tasQvQ4UI0eu-95">
          <mxGeometry x="720" y="655.5" width="30" height="15" as="geometry" />
        </mxCell>
        <mxCell id="d1IZJ3S6tasQvQ4UI0eu-144" style="edgeStyle=orthogonalEdgeStyle;rounded=0;orthogonalLoop=1;jettySize=auto;html=1;exitX=1;exitY=0.5;exitDx=0;exitDy=0;entryX=0;entryY=0.5;entryDx=0;entryDy=0;" edge="1" parent="d1IZJ3S6tasQvQ4UI0eu-95" source="d1IZJ3S6tasQvQ4UI0eu-145" target="d1IZJ3S6tasQvQ4UI0eu-153">
          <mxGeometry relative="1" as="geometry" />
        </mxCell>
        <mxCell id="d1IZJ3S6tasQvQ4UI0eu-145" value="EC is Infty?" style="rounded=1;whiteSpace=wrap;html=1;absoluteArcSize=1;arcSize=14;strokeWidth=2;fontSize=9;" vertex="1" parent="d1IZJ3S6tasQvQ4UI0eu-95">
          <mxGeometry x="790" y="651" width="60" height="17.5" as="geometry" />
        </mxCell>
        <mxCell id="d1IZJ3S6tasQvQ4UI0eu-146" style="edgeStyle=orthogonalEdgeStyle;rounded=0;orthogonalLoop=1;jettySize=auto;html=1;exitX=1;exitY=0.5;exitDx=0;exitDy=0;" edge="1" parent="d1IZJ3S6tasQvQ4UI0eu-95" source="d1IZJ3S6tasQvQ4UI0eu-147">
          <mxGeometry relative="1" as="geometry">
            <mxPoint x="940" y="673" as="targetPoint" />
            <Array as="points">
              <mxPoint x="900" y="703" />
              <mxPoint x="900" y="673" />
            </Array>
          </mxGeometry>
        </mxCell>
        <mxCell id="d1IZJ3S6tasQvQ4UI0eu-147" value="EC is even?" style="rounded=1;whiteSpace=wrap;html=1;absoluteArcSize=1;arcSize=14;strokeWidth=2;fontSize=9;" vertex="1" parent="d1IZJ3S6tasQvQ4UI0eu-95">
          <mxGeometry x="790" y="694.25" width="60" height="17.5" as="geometry" />
        </mxCell>
        <mxCell id="d1IZJ3S6tasQvQ4UI0eu-148" style="edgeStyle=orthogonalEdgeStyle;rounded=0;orthogonalLoop=1;jettySize=auto;html=1;exitX=1;exitY=0.5;exitDx=0;exitDy=0;" edge="1" parent="d1IZJ3S6tasQvQ4UI0eu-95" source="d1IZJ3S6tasQvQ4UI0eu-149">
          <mxGeometry relative="1" as="geometry">
            <mxPoint x="940" y="683" as="targetPoint" />
            <Array as="points">
              <mxPoint x="910" y="751" />
              <mxPoint x="910" y="683" />
            </Array>
          </mxGeometry>
        </mxCell>
        <mxCell id="d1IZJ3S6tasQvQ4UI0eu-149" value="Equal?" style="rounded=1;whiteSpace=wrap;html=1;absoluteArcSize=1;arcSize=14;strokeWidth=2;fontSize=9;" vertex="1" parent="d1IZJ3S6tasQvQ4UI0eu-95">
          <mxGeometry x="790" y="738" width="60" height="25" as="geometry" />
        </mxCell>
        <mxCell id="d1IZJ3S6tasQvQ4UI0eu-150" style="edgeStyle=orthogonalEdgeStyle;rounded=0;orthogonalLoop=1;jettySize=auto;html=1;exitX=1;exitY=0.5;exitDx=0;exitDy=0;entryX=0;entryY=0.75;entryDx=0;entryDy=0;" edge="1" parent="d1IZJ3S6tasQvQ4UI0eu-95" source="d1IZJ3S6tasQvQ4UI0eu-151" target="d1IZJ3S6tasQvQ4UI0eu-149">
          <mxGeometry relative="1" as="geometry" />
        </mxCell>
        <mxCell id="d1IZJ3S6tasQvQ4UI0eu-151" value="Byte[32] to Int" style="rounded=1;whiteSpace=wrap;html=1;absoluteArcSize=1;arcSize=14;strokeWidth=2;fontSize=7;" vertex="1" parent="d1IZJ3S6tasQvQ4UI0eu-95">
          <mxGeometry x="305" y="747" width="50" height="20" as="geometry" />
        </mxCell>
        <mxCell id="d1IZJ3S6tasQvQ4UI0eu-152" style="edgeStyle=orthogonalEdgeStyle;rounded=0;orthogonalLoop=1;jettySize=auto;html=1;exitX=1;exitY=0.5;exitDx=0;exitDy=0;entryX=-0.001;entryY=0.155;entryDx=0;entryDy=0;entryPerimeter=0;" edge="1" parent="d1IZJ3S6tasQvQ4UI0eu-95" source="d1IZJ3S6tasQvQ4UI0eu-153" target="d1IZJ3S6tasQvQ4UI0eu-155">
          <mxGeometry relative="1" as="geometry">
            <mxPoint x="930" y="653" as="targetPoint" />
            <Array as="points">
              <mxPoint x="910" y="660" />
              <mxPoint x="910" y="663" />
            </Array>
          </mxGeometry>
        </mxCell>
        <mxCell id="d1IZJ3S6tasQvQ4UI0eu-153" value="Not" style="rounded=1;whiteSpace=wrap;html=1;absoluteArcSize=1;arcSize=14;strokeWidth=2;fontSize=9;" vertex="1" parent="d1IZJ3S6tasQvQ4UI0eu-95">
          <mxGeometry x="870" y="647.25" width="30" height="25" as="geometry" />
        </mxCell>
        <mxCell id="d1IZJ3S6tasQvQ4UI0eu-154" style="edgeStyle=orthogonalEdgeStyle;rounded=0;orthogonalLoop=1;jettySize=auto;html=1;exitX=1;exitY=0.5;exitDx=0;exitDy=0;exitPerimeter=0;entryX=0;entryY=0.5;entryDx=0;entryDy=0;" edge="1" parent="d1IZJ3S6tasQvQ4UI0eu-95" source="d1IZJ3S6tasQvQ4UI0eu-155" target="d1IZJ3S6tasQvQ4UI0eu-156">
          <mxGeometry relative="1" as="geometry" />
        </mxCell>
        <mxCell id="d1IZJ3S6tasQvQ4UI0eu-155" value="AND" style="shape=or;whiteSpace=wrap;html=1;" vertex="1" parent="d1IZJ3S6tasQvQ4UI0eu-95">
          <mxGeometry x="940" y="658" width="30" height="35" as="geometry" />
        </mxCell>
        <mxCell id="d1IZJ3S6tasQvQ4UI0eu-156" value="bool result" style="html=1;whiteSpace=wrap;fontSize=9;" vertex="1" parent="d1IZJ3S6tasQvQ4UI0eu-95">
          <mxGeometry x="1030" y="668" width="60" height="15" as="geometry" />
        </mxCell>
        <mxCell id="7V60mKFHXmHXIKEVSdom-10" style="edgeStyle=orthogonalEdgeStyle;rounded=0;orthogonalLoop=1;jettySize=auto;html=1;exitX=1;exitY=0.5;exitDx=0;exitDy=0;entryX=0;entryY=0.5;entryDx=0;entryDy=0;" edge="1" parent="d1IZJ3S6tasQvQ4UI0eu-95" source="7V60mKFHXmHXIKEVSdom-1" target="7V60mKFHXmHXIKEVSdom-8">
          <mxGeometry relative="1" as="geometry" />
        </mxCell>
        <mxCell id="7V60mKFHXmHXIKEVSdom-1" value="byte pk[32]&lt;br style=&quot;font-size: 9px;&quot;&gt;Secret Key" style="html=1;whiteSpace=wrap;fontSize=9;" vertex="1" parent="d1IZJ3S6tasQvQ4UI0eu-95">
          <mxGeometry x="30" y="81.5" width="60" height="30" as="geometry" />
        </mxCell>
        <mxCell id="7V60mKFHXmHXIKEVSdom-42" style="edgeStyle=orthogonalEdgeStyle;rounded=0;orthogonalLoop=1;jettySize=auto;html=1;exitX=1;exitY=0.5;exitDx=0;exitDy=0;entryX=0;entryY=0.5;entryDx=0;entryDy=0;" edge="1" parent="d1IZJ3S6tasQvQ4UI0eu-95" source="7V60mKFHXmHXIKEVSdom-4" target="7V60mKFHXmHXIKEVSdom-51">
          <mxGeometry relative="1" as="geometry">
            <mxPoint x="155" y="232" as="targetPoint" />
          </mxGeometry>
        </mxCell>
        <mxCell id="7V60mKFHXmHXIKEVSdom-4" value="byte a[32]&lt;br&gt;Aux Random Num" style="html=1;whiteSpace=wrap;fontSize=9;" vertex="1" parent="d1IZJ3S6tasQvQ4UI0eu-95">
          <mxGeometry x="30" y="212" width="60" height="40" as="geometry" />
        </mxCell>
        <mxCell id="7V60mKFHXmHXIKEVSdom-63" style="edgeStyle=orthogonalEdgeStyle;rounded=0;orthogonalLoop=1;jettySize=auto;html=1;exitX=1;exitY=0.5;exitDx=0;exitDy=0;entryX=0;entryY=0.75;entryDx=0;entryDy=0;" edge="1" parent="d1IZJ3S6tasQvQ4UI0eu-95" source="7V60mKFHXmHXIKEVSdom-5" target="7V60mKFHXmHXIKEVSdom-49">
          <mxGeometry relative="1" as="geometry">
            <Array as="points">
              <mxPoint x="805" y="178" />
              <mxPoint x="805" y="139" />
            </Array>
          </mxGeometry>
        </mxCell>
        <mxCell id="7V60mKFHXmHXIKEVSdom-5" value="byte m[]&lt;br&gt;Message" style="html=1;whiteSpace=wrap;fontSize=9;" vertex="1" parent="d1IZJ3S6tasQvQ4UI0eu-95">
          <mxGeometry x="30" y="162.5" width="60" height="30" as="geometry" />
        </mxCell>
        <mxCell id="7V60mKFHXmHXIKEVSdom-20" style="rounded=0;orthogonalLoop=1;jettySize=auto;html=1;exitX=1;exitY=0.5;exitDx=0;exitDy=0;entryX=0;entryY=0.5;entryDx=0;entryDy=0;" edge="1" parent="d1IZJ3S6tasQvQ4UI0eu-95" source="7V60mKFHXmHXIKEVSdom-8" target="7V60mKFHXmHXIKEVSdom-9">
          <mxGeometry relative="1" as="geometry" />
        </mxCell>
        <mxCell id="7V60mKFHXmHXIKEVSdom-8" value="Byte[32] to Int" style="rounded=1;whiteSpace=wrap;html=1;absoluteArcSize=1;arcSize=14;strokeWidth=2;fontSize=7;" vertex="1" parent="d1IZJ3S6tasQvQ4UI0eu-95">
          <mxGeometry x="115" y="87" width="50" height="20" as="geometry" />
        </mxCell>
        <mxCell id="7V60mKFHXmHXIKEVSdom-13" style="rounded=0;orthogonalLoop=1;jettySize=auto;html=1;exitX=1;exitY=0.5;exitDx=0;exitDy=0;entryX=0;entryY=0.5;entryDx=0;entryDy=0;entryPerimeter=0;" edge="1" parent="d1IZJ3S6tasQvQ4UI0eu-95" source="7V60mKFHXmHXIKEVSdom-9" target="7V60mKFHXmHXIKEVSdom-12">
          <mxGeometry relative="1" as="geometry">
            <mxPoint x="235" y="103" as="targetPoint" />
          </mxGeometry>
        </mxCell>
        <mxCell id="7V60mKFHXmHXIKEVSdom-32" style="edgeStyle=orthogonalEdgeStyle;rounded=0;orthogonalLoop=1;jettySize=auto;html=1;exitX=1;exitY=0.5;exitDx=0;exitDy=0;entryX=0;entryY=0.316;entryDx=0;entryDy=0;entryPerimeter=0;" edge="1" parent="d1IZJ3S6tasQvQ4UI0eu-95" source="7V60mKFHXmHXIKEVSdom-9" target="7V60mKFHXmHXIKEVSdom-27">
          <mxGeometry relative="1" as="geometry">
            <Array as="points">
              <mxPoint x="225" y="97" />
              <mxPoint x="225" y="53" />
              <mxPoint x="405" y="53" />
              <mxPoint x="405" y="85" />
            </Array>
          </mxGeometry>
        </mxCell>
        <mxCell id="7V60mKFHXmHXIKEVSdom-9" value="int dd" style="html=1;whiteSpace=wrap;fontSize=9;" vertex="1" parent="d1IZJ3S6tasQvQ4UI0eu-95">
          <mxGeometry x="185" y="86" width="30" height="21" as="geometry" />
        </mxCell>
        <mxCell id="7V60mKFHXmHXIKEVSdom-17" style="rounded=0;orthogonalLoop=1;jettySize=auto;html=1;exitX=1;exitY=0.5;exitDx=0;exitDy=0;exitPerimeter=0;entryX=0;entryY=0.5;entryDx=0;entryDy=0;" edge="1" parent="d1IZJ3S6tasQvQ4UI0eu-95" source="7V60mKFHXmHXIKEVSdom-12" target="7V60mKFHXmHXIKEVSdom-14">
          <mxGeometry relative="1" as="geometry" />
        </mxCell>
        <mxCell id="7V60mKFHXmHXIKEVSdom-12" value="" style="strokeWidth=2;html=1;shape=mxgraph.flowchart.decision;whiteSpace=wrap;" vertex="1" parent="d1IZJ3S6tasQvQ4UI0eu-95">
          <mxGeometry x="245" y="87" width="15" height="19" as="geometry" />
        </mxCell>
        <mxCell id="7V60mKFHXmHXIKEVSdom-21" style="rounded=0;orthogonalLoop=1;jettySize=auto;html=1;exitX=1;exitY=0.5;exitDx=0;exitDy=0;" edge="1" parent="d1IZJ3S6tasQvQ4UI0eu-95" source="7V60mKFHXmHXIKEVSdom-14" target="7V60mKFHXmHXIKEVSdom-19">
          <mxGeometry relative="1" as="geometry" />
        </mxCell>
        <mxCell id="7V60mKFHXmHXIKEVSdom-14" value="EC Scalar Mul" style="rounded=1;whiteSpace=wrap;html=1;absoluteArcSize=1;arcSize=14;strokeWidth=2;fontSize=9;" vertex="1" parent="d1IZJ3S6tasQvQ4UI0eu-95">
          <mxGeometry x="285" y="87" width="65" height="20" as="geometry" />
        </mxCell>
        <mxCell id="7V60mKFHXmHXIKEVSdom-16" style="edgeStyle=orthogonalEdgeStyle;rounded=0;orthogonalLoop=1;jettySize=auto;html=1;exitX=1;exitY=0.5;exitDx=0;exitDy=0;entryX=0.5;entryY=0;entryDx=0;entryDy=0;" edge="1" parent="d1IZJ3S6tasQvQ4UI0eu-95" source="7V60mKFHXmHXIKEVSdom-15" target="7V60mKFHXmHXIKEVSdom-14">
          <mxGeometry relative="1" as="geometry" />
        </mxCell>
        <mxCell id="7V60mKFHXmHXIKEVSdom-15" value="G" style="html=1;whiteSpace=wrap;fontSize=9;" vertex="1" parent="d1IZJ3S6tasQvQ4UI0eu-95">
          <mxGeometry x="285" y="63" width="15" height="15" as="geometry" />
        </mxCell>
        <mxCell id="7V60mKFHXmHXIKEVSdom-33" style="rounded=0;orthogonalLoop=1;jettySize=auto;html=1;exitX=1;exitY=0.25;exitDx=0;exitDy=0;entryX=0;entryY=0.5;entryDx=0;entryDy=0;entryPerimeter=0;" edge="1" parent="d1IZJ3S6tasQvQ4UI0eu-95" source="7V60mKFHXmHXIKEVSdom-19" target="7V60mKFHXmHXIKEVSdom-27">
          <mxGeometry relative="1" as="geometry" />
        </mxCell>
        <mxCell id="7V60mKFHXmHXIKEVSdom-61" value="P" style="edgeLabel;html=1;align=center;verticalAlign=middle;resizable=0;points=[];" vertex="1" connectable="0" parent="7V60mKFHXmHXIKEVSdom-33">
          <mxGeometry x="-0.0865" y="1" relative="1" as="geometry">
            <mxPoint as="offset" />
          </mxGeometry>
        </mxCell>
        <mxCell id="7V60mKFHXmHXIKEVSdom-59" style="edgeStyle=orthogonalEdgeStyle;rounded=0;orthogonalLoop=1;jettySize=auto;html=1;exitX=1;exitY=0.5;exitDx=0;exitDy=0;entryX=0;entryY=0.5;entryDx=0;entryDy=0;" edge="1" parent="d1IZJ3S6tasQvQ4UI0eu-95">
          <mxGeometry relative="1" as="geometry">
            <mxPoint x="400" y="97" as="sourcePoint" />
            <mxPoint x="748" y="126.5" as="targetPoint" />
            <Array as="points">
              <mxPoint x="405" y="97" />
              <mxPoint x="405" y="153" />
              <mxPoint x="735" y="153" />
              <mxPoint x="735" y="127" />
            </Array>
          </mxGeometry>
        </mxCell>
        <mxCell id="7V60mKFHXmHXIKEVSdom-60" value="P.x" style="edgeLabel;html=1;align=center;verticalAlign=middle;resizable=0;points=[];" vertex="1" connectable="0" parent="7V60mKFHXmHXIKEVSdom-59">
          <mxGeometry x="-0.1724" relative="1" as="geometry">
            <mxPoint x="-60" as="offset" />
          </mxGeometry>
        </mxCell>
        <mxCell id="7V60mKFHXmHXIKEVSdom-19" value="EC P" style="html=1;whiteSpace=wrap;fontSize=9;" vertex="1" parent="d1IZJ3S6tasQvQ4UI0eu-95">
          <mxGeometry x="370" y="87" width="30" height="21" as="geometry" />
        </mxCell>
        <mxCell id="7V60mKFHXmHXIKEVSdom-37" style="rounded=0;orthogonalLoop=1;jettySize=auto;html=1;entryX=0;entryY=0.5;entryDx=0;entryDy=0;" edge="1" parent="d1IZJ3S6tasQvQ4UI0eu-95" source="7V60mKFHXmHXIKEVSdom-27" target="7V60mKFHXmHXIKEVSdom-35">
          <mxGeometry relative="1" as="geometry" />
        </mxCell>
        <mxCell id="7V60mKFHXmHXIKEVSdom-27" value="If P.y is even" style="shape=umlFrame;whiteSpace=wrap;html=1;pointerEvents=0;fontSize=9;width=70;height=15;" vertex="1" parent="d1IZJ3S6tasQvQ4UI0eu-95">
          <mxGeometry x="430" y="64" width="80" height="66" as="geometry" />
        </mxCell>
        <mxCell id="7V60mKFHXmHXIKEVSdom-28" value="True:&lt;br&gt;&amp;nbsp; return int dd&lt;br&gt;Otherwise:&lt;br&gt;&amp;nbsp; retunr int n-dd" style="text;html=1;strokeColor=none;fillColor=none;align=left;verticalAlign=middle;whiteSpace=wrap;rounded=0;fontSize=8;" vertex="1" parent="d1IZJ3S6tasQvQ4UI0eu-95">
          <mxGeometry x="430" y="81.5" width="65" height="45" as="geometry" />
        </mxCell>
        <mxCell id="7V60mKFHXmHXIKEVSdom-34" style="edgeStyle=orthogonalEdgeStyle;rounded=0;orthogonalLoop=1;jettySize=auto;html=1;exitX=1;exitY=0.5;exitDx=0;exitDy=0;entryX=-0.005;entryY=0.686;entryDx=0;entryDy=0;entryPerimeter=0;" edge="1" parent="d1IZJ3S6tasQvQ4UI0eu-95" source="7V60mKFHXmHXIKEVSdom-29" target="7V60mKFHXmHXIKEVSdom-28">
          <mxGeometry relative="1" as="geometry">
            <mxPoint x="425" y="113" as="targetPoint" />
            <Array as="points">
              <mxPoint x="420" y="131" />
              <mxPoint x="415" y="131" />
              <mxPoint x="415" y="112" />
            </Array>
          </mxGeometry>
        </mxCell>
        <mxCell id="7V60mKFHXmHXIKEVSdom-29" value="n" style="html=1;whiteSpace=wrap;fontSize=9;" vertex="1" parent="d1IZJ3S6tasQvQ4UI0eu-95">
          <mxGeometry x="410" y="122" width="10" height="15" as="geometry" />
        </mxCell>
        <mxCell id="7V60mKFHXmHXIKEVSdom-40" style="edgeStyle=orthogonalEdgeStyle;rounded=0;orthogonalLoop=1;jettySize=auto;html=1;exitX=1;exitY=0.5;exitDx=0;exitDy=0;entryX=0;entryY=0.5;entryDx=0;entryDy=0;" edge="1" parent="d1IZJ3S6tasQvQ4UI0eu-95" source="7V60mKFHXmHXIKEVSdom-35" target="7V60mKFHXmHXIKEVSdom-38">
          <mxGeometry relative="1" as="geometry" />
        </mxCell>
        <mxCell id="7V60mKFHXmHXIKEVSdom-35" value="int d" style="html=1;whiteSpace=wrap;fontSize=9;" vertex="1" parent="d1IZJ3S6tasQvQ4UI0eu-95">
          <mxGeometry x="535" y="91" width="30" height="12" as="geometry" />
        </mxCell>
        <mxCell id="7V60mKFHXmHXIKEVSdom-45" style="rounded=0;orthogonalLoop=1;jettySize=auto;html=1;exitX=1;exitY=0.5;exitDx=0;exitDy=0;entryX=0;entryY=0.25;entryDx=0;entryDy=0;" edge="1" parent="d1IZJ3S6tasQvQ4UI0eu-95" source="7V60mKFHXmHXIKEVSdom-38" target="7V60mKFHXmHXIKEVSdom-43">
          <mxGeometry relative="1" as="geometry" />
        </mxCell>
        <mxCell id="7V60mKFHXmHXIKEVSdom-38" value="Int To byte[32]" style="rounded=1;whiteSpace=wrap;html=1;absoluteArcSize=1;arcSize=14;strokeWidth=2;fontSize=7;" vertex="1" parent="d1IZJ3S6tasQvQ4UI0eu-95">
          <mxGeometry x="595" y="87" width="50" height="20" as="geometry" />
        </mxCell>
        <mxCell id="7V60mKFHXmHXIKEVSdom-44" style="edgeStyle=orthogonalEdgeStyle;rounded=0;orthogonalLoop=1;jettySize=auto;html=1;exitX=1;exitY=0.5;exitDx=0;exitDy=0;entryX=0;entryY=0.75;entryDx=0;entryDy=0;" edge="1" parent="d1IZJ3S6tasQvQ4UI0eu-95" source="7V60mKFHXmHXIKEVSdom-51" target="7V60mKFHXmHXIKEVSdom-43">
          <mxGeometry relative="1" as="geometry">
            <mxPoint x="205" y="252.5" as="sourcePoint" />
            <Array as="points">
              <mxPoint x="215" y="233" />
              <mxPoint x="655" y="233" />
              <mxPoint x="655" y="114" />
            </Array>
          </mxGeometry>
        </mxCell>
        <mxCell id="7V60mKFHXmHXIKEVSdom-46" value="byte[32]" style="edgeLabel;html=1;align=center;verticalAlign=middle;resizable=0;points=[];" vertex="1" connectable="0" parent="7V60mKFHXmHXIKEVSdom-44">
          <mxGeometry x="-0.8389" y="-6" relative="1" as="geometry">
            <mxPoint x="-18" y="-16" as="offset" />
          </mxGeometry>
        </mxCell>
        <mxCell id="7V60mKFHXmHXIKEVSdom-48" style="edgeStyle=orthogonalEdgeStyle;rounded=0;orthogonalLoop=1;jettySize=auto;html=1;exitX=1;exitY=0.5;exitDx=0;exitDy=0;entryX=0;entryY=0.5;entryDx=0;entryDy=0;" edge="1" parent="d1IZJ3S6tasQvQ4UI0eu-95" source="7V60mKFHXmHXIKEVSdom-43" target="7V60mKFHXmHXIKEVSdom-47">
          <mxGeometry relative="1" as="geometry" />
        </mxCell>
        <mxCell id="7V60mKFHXmHXIKEVSdom-43" value="XOR Each corresponding Byte" style="rounded=1;whiteSpace=wrap;html=1;absoluteArcSize=1;arcSize=14;strokeWidth=2;fontSize=7;" vertex="1" parent="d1IZJ3S6tasQvQ4UI0eu-95">
          <mxGeometry x="675" y="87" width="50" height="36" as="geometry" />
        </mxCell>
        <mxCell id="7V60mKFHXmHXIKEVSdom-55" style="rounded=0;orthogonalLoop=1;jettySize=auto;html=1;exitX=1;exitY=0.5;exitDx=0;exitDy=0;entryX=0;entryY=0.25;entryDx=0;entryDy=0;" edge="1" parent="d1IZJ3S6tasQvQ4UI0eu-95" source="7V60mKFHXmHXIKEVSdom-47" target="7V60mKFHXmHXIKEVSdom-49">
          <mxGeometry relative="1" as="geometry" />
        </mxCell>
        <mxCell id="7V60mKFHXmHXIKEVSdom-47" value="byte t[32]" style="html=1;whiteSpace=wrap;fontSize=9;" vertex="1" parent="d1IZJ3S6tasQvQ4UI0eu-95">
          <mxGeometry x="748" y="99" width="50" height="12" as="geometry" />
        </mxCell>
        <mxCell id="7V60mKFHXmHXIKEVSdom-65" style="edgeStyle=orthogonalEdgeStyle;rounded=0;orthogonalLoop=1;jettySize=auto;html=1;exitX=1;exitY=0.5;exitDx=0;exitDy=0;entryX=0;entryY=0.5;entryDx=0;entryDy=0;" edge="1" parent="d1IZJ3S6tasQvQ4UI0eu-95" source="7V60mKFHXmHXIKEVSdom-49" target="7V60mKFHXmHXIKEVSdom-64">
          <mxGeometry relative="1" as="geometry" />
        </mxCell>
        <mxCell id="7V60mKFHXmHXIKEVSdom-49" value="TaggedHash" style="rounded=1;whiteSpace=wrap;html=1;absoluteArcSize=1;arcSize=14;strokeWidth=2;fontSize=9;" vertex="1" parent="d1IZJ3S6tasQvQ4UI0eu-95">
          <mxGeometry x="822.5" y="97" width="60" height="56" as="geometry" />
        </mxCell>
        <mxCell id="7V60mKFHXmHXIKEVSdom-54" style="edgeStyle=orthogonalEdgeStyle;rounded=0;orthogonalLoop=1;jettySize=auto;html=1;exitX=0.5;exitY=1;exitDx=0;exitDy=0;entryX=0.5;entryY=0;entryDx=0;entryDy=0;" edge="1" parent="d1IZJ3S6tasQvQ4UI0eu-95" source="7V60mKFHXmHXIKEVSdom-50" target="7V60mKFHXmHXIKEVSdom-49">
          <mxGeometry relative="1" as="geometry" />
        </mxCell>
        <mxCell id="7V60mKFHXmHXIKEVSdom-50" value="&quot;BIP0340/nonce&quot;" style="html=1;whiteSpace=wrap;fontSize=9;" vertex="1" parent="d1IZJ3S6tasQvQ4UI0eu-95">
          <mxGeometry x="815" y="66.5" width="75" height="15" as="geometry" />
        </mxCell>
        <mxCell id="7V60mKFHXmHXIKEVSdom-51" value="TaggedHash" style="rounded=1;whiteSpace=wrap;html=1;absoluteArcSize=1;arcSize=14;strokeWidth=2;fontSize=9;" vertex="1" parent="d1IZJ3S6tasQvQ4UI0eu-95">
          <mxGeometry x="155" y="222" width="60" height="20" as="geometry" />
        </mxCell>
        <mxCell id="7V60mKFHXmHXIKEVSdom-53" style="edgeStyle=orthogonalEdgeStyle;rounded=0;orthogonalLoop=1;jettySize=auto;html=1;exitX=0.5;exitY=1;exitDx=0;exitDy=0;entryX=0.5;entryY=0;entryDx=0;entryDy=0;" edge="1" parent="d1IZJ3S6tasQvQ4UI0eu-95" source="7V60mKFHXmHXIKEVSdom-52" target="7V60mKFHXmHXIKEVSdom-51">
          <mxGeometry relative="1" as="geometry" />
        </mxCell>
        <mxCell id="7V60mKFHXmHXIKEVSdom-52" value="&quot;BIP0340/aux&quot;" style="html=1;whiteSpace=wrap;fontSize=9;" vertex="1" parent="d1IZJ3S6tasQvQ4UI0eu-95">
          <mxGeometry x="152.5" y="192.5" width="65" height="15" as="geometry" />
        </mxCell>
        <mxCell id="7V60mKFHXmHXIKEVSdom-62" style="rounded=0;orthogonalLoop=1;jettySize=auto;html=1;exitX=1;exitY=0.5;exitDx=0;exitDy=0;entryX=0;entryY=0.5;entryDx=0;entryDy=0;" edge="1" parent="d1IZJ3S6tasQvQ4UI0eu-95" source="7V60mKFHXmHXIKEVSdom-56" target="7V60mKFHXmHXIKEVSdom-49">
          <mxGeometry relative="1" as="geometry" />
        </mxCell>
        <mxCell id="7V60mKFHXmHXIKEVSdom-56" value="Int To byte[32]" style="rounded=1;whiteSpace=wrap;html=1;absoluteArcSize=1;arcSize=14;strokeWidth=2;fontSize=7;" vertex="1" parent="d1IZJ3S6tasQvQ4UI0eu-95">
          <mxGeometry x="748" y="117" width="50" height="20" as="geometry" />
        </mxCell>
        <mxCell id="7V60mKFHXmHXIKEVSdom-142" style="edgeStyle=orthogonalEdgeStyle;rounded=0;orthogonalLoop=1;jettySize=auto;html=1;exitX=0.5;exitY=1;exitDx=0;exitDy=0;entryX=0.5;entryY=0;entryDx=0;entryDy=0;" edge="1" parent="d1IZJ3S6tasQvQ4UI0eu-95" source="7V60mKFHXmHXIKEVSdom-64" target="7V60mKFHXmHXIKEVSdom-70">
          <mxGeometry relative="1" as="geometry">
            <Array as="points">
              <mxPoint x="935" y="283" />
              <mxPoint x="140" y="283" />
            </Array>
          </mxGeometry>
        </mxCell>
        <mxCell id="7V60mKFHXmHXIKEVSdom-143" value="rand[32]" style="edgeLabel;html=1;align=center;verticalAlign=middle;resizable=0;points=[];" vertex="1" connectable="0" parent="7V60mKFHXmHXIKEVSdom-142">
          <mxGeometry x="0.8309" relative="1" as="geometry">
            <mxPoint x="-8" as="offset" />
          </mxGeometry>
        </mxCell>
        <mxCell id="7V60mKFHXmHXIKEVSdom-64" value="byte rand[32]" style="html=1;whiteSpace=wrap;fontSize=9;" vertex="1" parent="d1IZJ3S6tasQvQ4UI0eu-95">
          <mxGeometry x="905" y="119" width="60" height="12" as="geometry" />
        </mxCell>
        <mxCell id="7V60mKFHXmHXIKEVSdom-74" style="rounded=0;orthogonalLoop=1;jettySize=auto;html=1;exitX=0.5;exitY=0;exitDx=0;exitDy=0;entryX=0;entryY=0.5;entryDx=0;entryDy=0;entryPerimeter=0;" edge="1" parent="d1IZJ3S6tasQvQ4UI0eu-95" source="7V60mKFHXmHXIKEVSdom-69" target="7V60mKFHXmHXIKEVSdom-73">
          <mxGeometry relative="1" as="geometry" />
        </mxCell>
        <mxCell id="7V60mKFHXmHXIKEVSdom-86" style="edgeStyle=orthogonalEdgeStyle;rounded=0;orthogonalLoop=1;jettySize=auto;html=1;exitX=0.5;exitY=0;exitDx=0;exitDy=0;entryX=0.001;entryY=0.304;entryDx=0;entryDy=0;entryPerimeter=0;" edge="1" parent="d1IZJ3S6tasQvQ4UI0eu-95" source="7V60mKFHXmHXIKEVSdom-69" target="7V60mKFHXmHXIKEVSdom-81">
          <mxGeometry relative="1" as="geometry">
            <Array as="points">
              <mxPoint x="170.5" y="358" />
              <mxPoint x="170.5" y="313" />
              <mxPoint x="370.5" y="313" />
              <mxPoint x="370.5" y="357" />
            </Array>
          </mxGeometry>
        </mxCell>
        <mxCell id="7V60mKFHXmHXIKEVSdom-69" value="int kd" style="html=1;whiteSpace=wrap;fontSize=9;direction=south;" vertex="1" parent="d1IZJ3S6tasQvQ4UI0eu-95">
          <mxGeometry x="119.5" y="349" width="41" height="19" as="geometry" />
        </mxCell>
        <mxCell id="7V60mKFHXmHXIKEVSdom-72" style="rounded=0;orthogonalLoop=1;jettySize=auto;html=1;exitX=0.5;exitY=1;exitDx=0;exitDy=0;entryX=0;entryY=0.5;entryDx=0;entryDy=0;" edge="1" parent="d1IZJ3S6tasQvQ4UI0eu-95" source="7V60mKFHXmHXIKEVSdom-70" target="7V60mKFHXmHXIKEVSdom-69">
          <mxGeometry relative="1" as="geometry" />
        </mxCell>
        <mxCell id="7V60mKFHXmHXIKEVSdom-70" value="Byte[32] to Int" style="rounded=1;whiteSpace=wrap;html=1;absoluteArcSize=1;arcSize=14;strokeWidth=2;fontSize=7;" vertex="1" parent="d1IZJ3S6tasQvQ4UI0eu-95">
          <mxGeometry x="115" y="313" width="50" height="20" as="geometry" />
        </mxCell>
        <mxCell id="7V60mKFHXmHXIKEVSdom-78" style="rounded=0;orthogonalLoop=1;jettySize=auto;html=1;exitX=1;exitY=0.5;exitDx=0;exitDy=0;exitPerimeter=0;entryX=0;entryY=0.5;entryDx=0;entryDy=0;" edge="1" parent="d1IZJ3S6tasQvQ4UI0eu-95" source="7V60mKFHXmHXIKEVSdom-73" target="7V60mKFHXmHXIKEVSdom-75">
          <mxGeometry relative="1" as="geometry" />
        </mxCell>
        <mxCell id="7V60mKFHXmHXIKEVSdom-73" value="" style="strokeWidth=2;html=1;shape=mxgraph.flowchart.decision;whiteSpace=wrap;" vertex="1" parent="d1IZJ3S6tasQvQ4UI0eu-95">
          <mxGeometry x="185.5" y="349" width="15" height="19" as="geometry" />
        </mxCell>
        <mxCell id="7V60mKFHXmHXIKEVSdom-80" style="edgeStyle=orthogonalEdgeStyle;rounded=0;orthogonalLoop=1;jettySize=auto;html=1;exitX=1;exitY=0.5;exitDx=0;exitDy=0;entryX=0.5;entryY=1;entryDx=0;entryDy=0;" edge="1" parent="d1IZJ3S6tasQvQ4UI0eu-95" source="7V60mKFHXmHXIKEVSdom-75" target="7V60mKFHXmHXIKEVSdom-79">
          <mxGeometry relative="1" as="geometry" />
        </mxCell>
        <mxCell id="7V60mKFHXmHXIKEVSdom-75" value="EC Scalar Mul" style="rounded=1;whiteSpace=wrap;html=1;absoluteArcSize=1;arcSize=14;strokeWidth=2;fontSize=9;" vertex="1" parent="d1IZJ3S6tasQvQ4UI0eu-95">
          <mxGeometry x="220.5" y="349.5" width="65" height="20" as="geometry" />
        </mxCell>
        <mxCell id="7V60mKFHXmHXIKEVSdom-77" style="edgeStyle=orthogonalEdgeStyle;rounded=0;orthogonalLoop=1;jettySize=auto;html=1;exitX=1;exitY=0.5;exitDx=0;exitDy=0;entryX=0.5;entryY=0;entryDx=0;entryDy=0;" edge="1" parent="d1IZJ3S6tasQvQ4UI0eu-95" source="7V60mKFHXmHXIKEVSdom-76" target="7V60mKFHXmHXIKEVSdom-75">
          <mxGeometry relative="1" as="geometry" />
        </mxCell>
        <mxCell id="7V60mKFHXmHXIKEVSdom-76" value="G" style="html=1;whiteSpace=wrap;fontSize=9;" vertex="1" parent="d1IZJ3S6tasQvQ4UI0eu-95">
          <mxGeometry x="225.5" y="323" width="15" height="15" as="geometry" />
        </mxCell>
        <mxCell id="7V60mKFHXmHXIKEVSdom-85" style="rounded=0;orthogonalLoop=1;jettySize=auto;html=1;exitX=0.5;exitY=0;exitDx=0;exitDy=0;entryX=0.004;entryY=0.54;entryDx=0;entryDy=0;entryPerimeter=0;edgeStyle=orthogonalEdgeStyle;" edge="1" parent="d1IZJ3S6tasQvQ4UI0eu-95" source="7V60mKFHXmHXIKEVSdom-79" target="7V60mKFHXmHXIKEVSdom-81">
          <mxGeometry relative="1" as="geometry">
            <Array as="points">
              <mxPoint x="360.5" y="360" />
              <mxPoint x="360.5" y="372" />
            </Array>
          </mxGeometry>
        </mxCell>
        <mxCell id="7V60mKFHXmHXIKEVSdom-89" value="R" style="edgeLabel;html=1;align=center;verticalAlign=middle;resizable=0;points=[];" vertex="1" connectable="0" parent="7V60mKFHXmHXIKEVSdom-85">
          <mxGeometry x="-0.2474" y="1" relative="1" as="geometry">
            <mxPoint x="9" y="2" as="offset" />
          </mxGeometry>
        </mxCell>
        <mxCell id="7V60mKFHXmHXIKEVSdom-102" style="edgeStyle=orthogonalEdgeStyle;rounded=0;orthogonalLoop=1;jettySize=auto;html=1;exitX=0.5;exitY=0;exitDx=0;exitDy=0;entryX=0;entryY=0.5;entryDx=0;entryDy=0;" edge="1" parent="d1IZJ3S6tasQvQ4UI0eu-95" source="7V60mKFHXmHXIKEVSdom-79" target="7V60mKFHXmHXIKEVSdom-99">
          <mxGeometry relative="1" as="geometry">
            <Array as="points">
              <mxPoint x="350.5" y="360" />
              <mxPoint x="350.5" y="413" />
              <mxPoint x="560.5" y="413" />
              <mxPoint x="560.5" y="348" />
            </Array>
          </mxGeometry>
        </mxCell>
        <mxCell id="7V60mKFHXmHXIKEVSdom-105" value="R.x" style="edgeLabel;html=1;align=center;verticalAlign=middle;resizable=0;points=[];" vertex="1" connectable="0" parent="7V60mKFHXmHXIKEVSdom-102">
          <mxGeometry x="-0.5551" y="4" relative="1" as="geometry">
            <mxPoint as="offset" />
          </mxGeometry>
        </mxCell>
        <mxCell id="7V60mKFHXmHXIKEVSdom-79" value="EC R" style="html=1;whiteSpace=wrap;fontSize=9;direction=south;" vertex="1" parent="d1IZJ3S6tasQvQ4UI0eu-95">
          <mxGeometry x="299.5" y="350.5" width="41" height="19" as="geometry" />
        </mxCell>
        <mxCell id="7V60mKFHXmHXIKEVSdom-93" style="rounded=0;orthogonalLoop=1;jettySize=auto;html=1;entryX=0.5;entryY=1;entryDx=0;entryDy=0;" edge="1" parent="d1IZJ3S6tasQvQ4UI0eu-95" source="7V60mKFHXmHXIKEVSdom-81" target="7V60mKFHXmHXIKEVSdom-92">
          <mxGeometry relative="1" as="geometry" />
        </mxCell>
        <mxCell id="7V60mKFHXmHXIKEVSdom-81" value="if R.y is even" style="shape=umlFrame;whiteSpace=wrap;html=1;pointerEvents=0;fontSize=9;width=70;height=15;" vertex="1" parent="d1IZJ3S6tasQvQ4UI0eu-95">
          <mxGeometry x="410.5" y="336.75" width="80" height="66" as="geometry" />
        </mxCell>
        <mxCell id="7V60mKFHXmHXIKEVSdom-82" value="True:&lt;br&gt;&amp;nbsp; return int kd&lt;br&gt;Otherwise:&lt;br&gt;&amp;nbsp; retunr int n-kd" style="text;html=1;strokeColor=none;fillColor=none;align=left;verticalAlign=middle;whiteSpace=wrap;rounded=0;fontSize=8;" vertex="1" parent="d1IZJ3S6tasQvQ4UI0eu-95">
          <mxGeometry x="418" y="352.75" width="65" height="45" as="geometry" />
        </mxCell>
        <mxCell id="7V60mKFHXmHXIKEVSdom-91" style="rounded=0;orthogonalLoop=1;jettySize=auto;html=1;exitX=1;exitY=0.5;exitDx=0;exitDy=0;entryX=-0.003;entryY=0.716;entryDx=0;entryDy=0;entryPerimeter=0;" edge="1" parent="d1IZJ3S6tasQvQ4UI0eu-95" source="7V60mKFHXmHXIKEVSdom-83" target="7V60mKFHXmHXIKEVSdom-81">
          <mxGeometry relative="1" as="geometry" />
        </mxCell>
        <mxCell id="7V60mKFHXmHXIKEVSdom-83" value="n" style="html=1;whiteSpace=wrap;fontSize=9;" vertex="1" parent="d1IZJ3S6tasQvQ4UI0eu-95">
          <mxGeometry x="385.5" y="382.75" width="10" height="15" as="geometry" />
        </mxCell>
        <mxCell id="7V60mKFHXmHXIKEVSdom-127" style="edgeStyle=orthogonalEdgeStyle;rounded=0;orthogonalLoop=1;jettySize=auto;html=1;exitX=0.5;exitY=0;exitDx=0;exitDy=0;entryX=0;entryY=0.5;entryDx=0;entryDy=0;" edge="1" parent="d1IZJ3S6tasQvQ4UI0eu-95" source="7V60mKFHXmHXIKEVSdom-92" target="7V60mKFHXmHXIKEVSdom-125">
          <mxGeometry relative="1" as="geometry">
            <mxPoint x="780.5" y="453" as="targetPoint" />
            <Array as="points">
              <mxPoint x="550.5" y="363" />
              <mxPoint x="550.5" y="453" />
            </Array>
          </mxGeometry>
        </mxCell>
        <mxCell id="7V60mKFHXmHXIKEVSdom-92" value="int k" style="html=1;whiteSpace=wrap;fontSize=9;direction=south;" vertex="1" parent="d1IZJ3S6tasQvQ4UI0eu-95">
          <mxGeometry x="508" y="353" width="35" height="19" as="geometry" />
        </mxCell>
        <mxCell id="7V60mKFHXmHXIKEVSdom-111" style="edgeStyle=orthogonalEdgeStyle;rounded=0;orthogonalLoop=1;jettySize=auto;html=1;exitX=1;exitY=0.5;exitDx=0;exitDy=0;entryX=0;entryY=0.5;entryDx=0;entryDy=0;" edge="1" parent="d1IZJ3S6tasQvQ4UI0eu-95" source="7V60mKFHXmHXIKEVSdom-94" target="7V60mKFHXmHXIKEVSdom-110">
          <mxGeometry relative="1" as="geometry" />
        </mxCell>
        <mxCell id="7V60mKFHXmHXIKEVSdom-94" value="TaggedHash" style="rounded=1;whiteSpace=wrap;html=1;absoluteArcSize=1;arcSize=14;strokeWidth=2;fontSize=9;" vertex="1" parent="d1IZJ3S6tasQvQ4UI0eu-95">
          <mxGeometry x="710.5" y="350.5" width="60" height="56" as="geometry" />
        </mxCell>
        <mxCell id="7V60mKFHXmHXIKEVSdom-109" style="edgeStyle=orthogonalEdgeStyle;rounded=0;orthogonalLoop=1;jettySize=auto;html=1;exitX=0.5;exitY=1;exitDx=0;exitDy=0;entryX=0.5;entryY=0;entryDx=0;entryDy=0;" edge="1" parent="d1IZJ3S6tasQvQ4UI0eu-95" source="7V60mKFHXmHXIKEVSdom-95" target="7V60mKFHXmHXIKEVSdom-94">
          <mxGeometry relative="1" as="geometry" />
        </mxCell>
        <mxCell id="7V60mKFHXmHXIKEVSdom-95" value="&quot;BIP0340/challenge&quot;" style="html=1;whiteSpace=wrap;fontSize=9;" vertex="1" parent="d1IZJ3S6tasQvQ4UI0eu-95">
          <mxGeometry x="685.5" y="323" width="90" height="15" as="geometry" />
        </mxCell>
        <mxCell id="7V60mKFHXmHXIKEVSdom-106" style="rounded=0;orthogonalLoop=1;jettySize=auto;html=1;exitX=1;exitY=0.5;exitDx=0;exitDy=0;entryX=0;entryY=0.25;entryDx=0;entryDy=0;edgeStyle=orthogonalEdgeStyle;" edge="1" parent="d1IZJ3S6tasQvQ4UI0eu-95" source="7V60mKFHXmHXIKEVSdom-99" target="7V60mKFHXmHXIKEVSdom-94">
          <mxGeometry relative="1" as="geometry">
            <Array as="points">
              <mxPoint x="680.5" y="348" />
              <mxPoint x="680.5" y="365" />
            </Array>
          </mxGeometry>
        </mxCell>
        <mxCell id="7V60mKFHXmHXIKEVSdom-134" style="edgeStyle=orthogonalEdgeStyle;rounded=0;orthogonalLoop=1;jettySize=auto;html=1;exitX=1;exitY=0.5;exitDx=0;exitDy=0;entryX=0;entryY=0.25;entryDx=0;entryDy=0;" edge="1" parent="d1IZJ3S6tasQvQ4UI0eu-95" source="7V60mKFHXmHXIKEVSdom-99" target="7V60mKFHXmHXIKEVSdom-132">
          <mxGeometry relative="1" as="geometry">
            <Array as="points">
              <mxPoint x="680.5" y="348" />
              <mxPoint x="680.5" y="483" />
              <mxPoint x="960.5" y="483" />
              <mxPoint x="960.5" y="451" />
            </Array>
          </mxGeometry>
        </mxCell>
        <mxCell id="7V60mKFHXmHXIKEVSdom-135" value="byte array of R.x" style="edgeLabel;html=1;align=center;verticalAlign=middle;resizable=0;points=[];" vertex="1" connectable="0" parent="7V60mKFHXmHXIKEVSdom-134">
          <mxGeometry x="0.0067" y="-1" relative="1" as="geometry">
            <mxPoint as="offset" />
          </mxGeometry>
        </mxCell>
        <mxCell id="7V60mKFHXmHXIKEVSdom-99" value="Int To byte[32]" style="rounded=1;whiteSpace=wrap;html=1;absoluteArcSize=1;arcSize=14;strokeWidth=2;fontSize=7;" vertex="1" parent="d1IZJ3S6tasQvQ4UI0eu-95">
          <mxGeometry x="620.5" y="338" width="50" height="20" as="geometry" />
        </mxCell>
        <mxCell id="7V60mKFHXmHXIKEVSdom-107" style="rounded=0;orthogonalLoop=1;jettySize=auto;html=1;exitX=1;exitY=0.5;exitDx=0;exitDy=0;entryX=0;entryY=0.5;entryDx=0;entryDy=0;" edge="1" parent="d1IZJ3S6tasQvQ4UI0eu-95" source="7V60mKFHXmHXIKEVSdom-101" target="7V60mKFHXmHXIKEVSdom-94">
          <mxGeometry relative="1" as="geometry" />
        </mxCell>
        <mxCell id="7V60mKFHXmHXIKEVSdom-101" value="Int To byte[32]" style="rounded=1;whiteSpace=wrap;html=1;absoluteArcSize=1;arcSize=14;strokeWidth=2;fontSize=7;" vertex="1" parent="d1IZJ3S6tasQvQ4UI0eu-95">
          <mxGeometry x="620.5" y="377.75" width="50" height="20" as="geometry" />
        </mxCell>
        <mxCell id="7V60mKFHXmHXIKEVSdom-115" style="edgeStyle=orthogonalEdgeStyle;rounded=0;orthogonalLoop=1;jettySize=auto;html=1;exitX=1;exitY=0.5;exitDx=0;exitDy=0;entryX=0;entryY=0.5;entryDx=0;entryDy=0;" edge="1" parent="d1IZJ3S6tasQvQ4UI0eu-95" source="7V60mKFHXmHXIKEVSdom-110" target="7V60mKFHXmHXIKEVSdom-114">
          <mxGeometry relative="1" as="geometry" />
        </mxCell>
        <mxCell id="7V60mKFHXmHXIKEVSdom-110" value="Byte[32] to Int" style="rounded=1;whiteSpace=wrap;html=1;absoluteArcSize=1;arcSize=14;strokeWidth=2;fontSize=7;" vertex="1" parent="d1IZJ3S6tasQvQ4UI0eu-95">
          <mxGeometry x="790.5" y="368" width="50" height="20" as="geometry" />
        </mxCell>
        <mxCell id="7V60mKFHXmHXIKEVSdom-123" style="rounded=0;orthogonalLoop=1;jettySize=auto;html=1;exitX=0.5;exitY=0;exitDx=0;exitDy=0;" edge="1" parent="d1IZJ3S6tasQvQ4UI0eu-95" source="7V60mKFHXmHXIKEVSdom-112" target="7V60mKFHXmHXIKEVSdom-120">
          <mxGeometry relative="1" as="geometry" />
        </mxCell>
        <mxCell id="7V60mKFHXmHXIKEVSdom-112" value="int e" style="html=1;whiteSpace=wrap;fontSize=9;direction=south;" vertex="1" parent="d1IZJ3S6tasQvQ4UI0eu-95">
          <mxGeometry x="920.5" y="369" width="35" height="19" as="geometry" />
        </mxCell>
        <mxCell id="7V60mKFHXmHXIKEVSdom-116" style="edgeStyle=orthogonalEdgeStyle;rounded=0;orthogonalLoop=1;jettySize=auto;html=1;exitX=1;exitY=0.5;exitDx=0;exitDy=0;entryX=0.5;entryY=1;entryDx=0;entryDy=0;" edge="1" parent="d1IZJ3S6tasQvQ4UI0eu-95" source="7V60mKFHXmHXIKEVSdom-114" target="7V60mKFHXmHXIKEVSdom-112">
          <mxGeometry relative="1" as="geometry" />
        </mxCell>
        <mxCell id="7V60mKFHXmHXIKEVSdom-114" value="mod" style="rounded=1;whiteSpace=wrap;html=1;absoluteArcSize=1;arcSize=14;strokeWidth=2;fontSize=7;" vertex="1" parent="d1IZJ3S6tasQvQ4UI0eu-95">
          <mxGeometry x="860.5" y="368.5" width="30" height="20" as="geometry" />
        </mxCell>
        <mxCell id="7V60mKFHXmHXIKEVSdom-118" style="edgeStyle=orthogonalEdgeStyle;rounded=0;orthogonalLoop=1;jettySize=auto;html=1;exitX=0.5;exitY=1;exitDx=0;exitDy=0;entryX=0.5;entryY=0;entryDx=0;entryDy=0;" edge="1" parent="d1IZJ3S6tasQvQ4UI0eu-95" source="7V60mKFHXmHXIKEVSdom-117" target="7V60mKFHXmHXIKEVSdom-114">
          <mxGeometry relative="1" as="geometry" />
        </mxCell>
        <mxCell id="7V60mKFHXmHXIKEVSdom-117" value="n" style="html=1;whiteSpace=wrap;fontSize=9;" vertex="1" parent="d1IZJ3S6tasQvQ4UI0eu-95">
          <mxGeometry x="870.5" y="338" width="10" height="15" as="geometry" />
        </mxCell>
        <mxCell id="7V60mKFHXmHXIKEVSdom-126" style="edgeStyle=orthogonalEdgeStyle;rounded=0;orthogonalLoop=1;jettySize=auto;html=1;exitX=0.5;exitY=1;exitDx=0;exitDy=0;entryX=0.5;entryY=0;entryDx=0;entryDy=0;" edge="1" parent="d1IZJ3S6tasQvQ4UI0eu-95" source="7V60mKFHXmHXIKEVSdom-120" target="7V60mKFHXmHXIKEVSdom-125">
          <mxGeometry relative="1" as="geometry" />
        </mxCell>
        <mxCell id="7V60mKFHXmHXIKEVSdom-120" value="x" style="ellipse;whiteSpace=wrap;html=1;aspect=fixed;" vertex="1" parent="d1IZJ3S6tasQvQ4UI0eu-95">
          <mxGeometry x="980.5" y="353" width="20" height="20" as="geometry" />
        </mxCell>
        <mxCell id="7V60mKFHXmHXIKEVSdom-131" style="edgeStyle=orthogonalEdgeStyle;rounded=0;orthogonalLoop=1;jettySize=auto;html=1;exitX=1;exitY=0.5;exitDx=0;exitDy=0;entryX=0;entryY=0.5;entryDx=0;entryDy=0;" edge="1" parent="d1IZJ3S6tasQvQ4UI0eu-95" source="7V60mKFHXmHXIKEVSdom-125" target="7V60mKFHXmHXIKEVSdom-128">
          <mxGeometry relative="1" as="geometry" />
        </mxCell>
        <mxCell id="7V60mKFHXmHXIKEVSdom-125" value="+" style="ellipse;whiteSpace=wrap;html=1;aspect=fixed;" vertex="1" parent="d1IZJ3S6tasQvQ4UI0eu-95">
          <mxGeometry x="810.5" y="443" width="20" height="20" as="geometry" />
        </mxCell>
        <mxCell id="7V60mKFHXmHXIKEVSdom-133" style="edgeStyle=orthogonalEdgeStyle;rounded=0;orthogonalLoop=1;jettySize=auto;html=1;exitX=1;exitY=0.5;exitDx=0;exitDy=0;entryX=0.008;entryY=0.627;entryDx=0;entryDy=0;entryPerimeter=0;" edge="1" parent="d1IZJ3S6tasQvQ4UI0eu-95" source="7V60mKFHXmHXIKEVSdom-128" target="7V60mKFHXmHXIKEVSdom-132">
          <mxGeometry relative="1" as="geometry">
            <Array as="points">
              <mxPoint x="950.5" y="453" />
              <mxPoint x="950.5" y="462" />
            </Array>
          </mxGeometry>
        </mxCell>
        <mxCell id="7V60mKFHXmHXIKEVSdom-136" value="k+ed (mod n)" style="edgeLabel;html=1;align=center;verticalAlign=middle;resizable=0;points=[];fontSize=8;" vertex="1" connectable="0" parent="7V60mKFHXmHXIKEVSdom-133">
          <mxGeometry x="-0.8315" y="-1" relative="1" as="geometry">
            <mxPoint x="21" y="-1" as="offset" />
          </mxGeometry>
        </mxCell>
        <mxCell id="7V60mKFHXmHXIKEVSdom-128" value="mod" style="rounded=1;whiteSpace=wrap;html=1;absoluteArcSize=1;arcSize=14;strokeWidth=2;fontSize=7;" vertex="1" parent="d1IZJ3S6tasQvQ4UI0eu-95">
          <mxGeometry x="860.5" y="443" width="30" height="20" as="geometry" />
        </mxCell>
        <mxCell id="7V60mKFHXmHXIKEVSdom-130" style="edgeStyle=orthogonalEdgeStyle;rounded=0;orthogonalLoop=1;jettySize=auto;html=1;exitX=0.5;exitY=1;exitDx=0;exitDy=0;entryX=0.5;entryY=0;entryDx=0;entryDy=0;" edge="1" parent="d1IZJ3S6tasQvQ4UI0eu-95" source="7V60mKFHXmHXIKEVSdom-129" target="7V60mKFHXmHXIKEVSdom-128">
          <mxGeometry relative="1" as="geometry" />
        </mxCell>
        <mxCell id="7V60mKFHXmHXIKEVSdom-129" value="n" style="html=1;whiteSpace=wrap;fontSize=9;" vertex="1" parent="d1IZJ3S6tasQvQ4UI0eu-95">
          <mxGeometry x="870.5" y="413" width="10" height="15" as="geometry" />
        </mxCell>
        <mxCell id="7V60mKFHXmHXIKEVSdom-153" style="edgeStyle=orthogonalEdgeStyle;rounded=0;orthogonalLoop=1;jettySize=auto;html=1;exitX=1;exitY=0.5;exitDx=0;exitDy=0;entryX=0.5;entryY=1;entryDx=0;entryDy=0;" edge="1" parent="d1IZJ3S6tasQvQ4UI0eu-95" source="7V60mKFHXmHXIKEVSdom-132" target="7V60mKFHXmHXIKEVSdom-137">
          <mxGeometry relative="1" as="geometry" />
        </mxCell>
        <mxCell id="7V60mKFHXmHXIKEVSdom-132" value="Concate&lt;br&gt;Array" style="rounded=1;whiteSpace=wrap;html=1;absoluteArcSize=1;arcSize=14;strokeWidth=2;fontSize=9;" vertex="1" parent="d1IZJ3S6tasQvQ4UI0eu-95">
          <mxGeometry x="980.5" y="443" width="50" height="30" as="geometry" />
        </mxCell>
        <mxCell id="7V60mKFHXmHXIKEVSdom-137" value="byte sig[64]" style="html=1;whiteSpace=wrap;fontSize=9;direction=south;" vertex="1" parent="d1IZJ3S6tasQvQ4UI0eu-95">
          <mxGeometry x="1040.5" y="448.5" width="60" height="19" as="geometry" />
        </mxCell>
        <mxCell id="7V60mKFHXmHXIKEVSdom-146" style="edgeStyle=orthogonalEdgeStyle;rounded=0;orthogonalLoop=1;jettySize=auto;html=1;exitX=1;exitY=0.5;exitDx=0;exitDy=0;entryX=0;entryY=0.5;entryDx=0;entryDy=0;" edge="1" parent="d1IZJ3S6tasQvQ4UI0eu-95" source="7V60mKFHXmHXIKEVSdom-145" target="7V60mKFHXmHXIKEVSdom-101">
          <mxGeometry relative="1" as="geometry" />
        </mxCell>
        <mxCell id="7V60mKFHXmHXIKEVSdom-147" value="P.x" style="edgeLabel;html=1;align=center;verticalAlign=middle;resizable=0;points=[];" vertex="1" connectable="0" parent="7V60mKFHXmHXIKEVSdom-146">
          <mxGeometry x="0.0183" y="-1" relative="1" as="geometry">
            <mxPoint y="9" as="offset" />
          </mxGeometry>
        </mxCell>
        <mxCell id="7V60mKFHXmHXIKEVSdom-145" value="EC P" style="html=1;whiteSpace=wrap;fontSize=9;fillColor=#dae8fc;strokeColor=#6c8ebf;" vertex="1" parent="d1IZJ3S6tasQvQ4UI0eu-95">
          <mxGeometry x="570.5" y="376.75" width="30" height="21" as="geometry" />
        </mxCell>
        <mxCell id="7V60mKFHXmHXIKEVSdom-149" style="edgeStyle=orthogonalEdgeStyle;rounded=0;orthogonalLoop=1;jettySize=auto;html=1;exitX=1;exitY=0.5;exitDx=0;exitDy=0;entryX=0.5;entryY=0;entryDx=0;entryDy=0;" edge="1" parent="d1IZJ3S6tasQvQ4UI0eu-95" source="7V60mKFHXmHXIKEVSdom-148" target="7V60mKFHXmHXIKEVSdom-120">
          <mxGeometry relative="1" as="geometry" />
        </mxCell>
        <mxCell id="7V60mKFHXmHXIKEVSdom-148" value="int d" style="html=1;whiteSpace=wrap;fontSize=9;fillColor=#dae8fc;strokeColor=#6c8ebf;" vertex="1" parent="d1IZJ3S6tasQvQ4UI0eu-95">
          <mxGeometry x="950.5" y="326" width="30" height="12" as="geometry" />
        </mxCell>
        <mxCell id="7V60mKFHXmHXIKEVSdom-151" style="edgeStyle=orthogonalEdgeStyle;rounded=0;orthogonalLoop=1;jettySize=auto;html=1;exitX=0.5;exitY=0;exitDx=0;exitDy=0;entryX=0;entryY=0.75;entryDx=0;entryDy=0;" edge="1" parent="d1IZJ3S6tasQvQ4UI0eu-95" source="7V60mKFHXmHXIKEVSdom-150" target="7V60mKFHXmHXIKEVSdom-94">
          <mxGeometry relative="1" as="geometry">
            <Array as="points">
              <mxPoint x="690.5" y="422" />
              <mxPoint x="690.5" y="393" />
            </Array>
          </mxGeometry>
        </mxCell>
        <mxCell id="7V60mKFHXmHXIKEVSdom-150" value="byte m[]" style="html=1;whiteSpace=wrap;fontSize=9;fillColor=#dae8fc;strokeColor=#6c8ebf;" vertex="1" parent="d1IZJ3S6tasQvQ4UI0eu-95">
          <mxGeometry x="685.5" y="413" width="40" height="21" as="geometry" />
        </mxCell>
      </root>
    </mxGraphModel>
  </diagram>
</mxfile>
